<svg xmlns="http://www.w3.org/2000/svg" xmlns:xlink="http://www.w3.org/1999/xlink" width="500" zoomAndPan="magnify" viewBox="0 0 375 374.999991" height="500" preserveAspectRatio="xMidYMid meet" version="1.0"><defs><g/><clipPath id="e0ee9dcb82"><path d="M 0 0 L 375 0 L 375 375 L 0 375 Z M 0 0 " clip-rule="nonzero"/></clipPath><clipPath id="0460782594"><path d="M 59.25 0 L 315.75 0 C 348.472656 0 375 26.527344 375 59.25 L 375 315.75 C 375 348.472656 348.472656 375 315.75 375 L 59.25 375 C 26.527344 375 0 348.472656 0 315.75 L 0 59.25 C 0 26.527344 26.527344 0 59.25 0 Z M 59.25 0 " clip-rule="nonzero"/></clipPath><clipPath id="5118ccd232"><path d="M 0 0 L 375 0 L 375 375 L 0 375 Z M 0 0 " clip-rule="nonzero"/></clipPath><clipPath id="78c52c5650"><path d="M 59.25 0 L 315.75 0 C 348.472656 0 375 26.527344 375 59.25 L 375 315.75 C 375 348.472656 348.472656 375 315.75 375 L 59.25 375 C 26.527344 375 0 348.472656 0 315.75 L 0 59.25 C 0 26.527344 26.527344 0 59.25 0 Z M 59.25 0 " clip-rule="nonzero"/></clipPath><clipPath id="8bdb1b671d"><rect x="0" width="375" y="0" height="375"/></clipPath><clipPath id="2401f0a093"><path d="M 55 27 L 281 27 L 281 262 L 55 262 Z M 55 27 " clip-rule="nonzero"/></clipPath><clipPath id="e3dc3c3a6b"><path d="M 65 8 L 291 8 L 291 262 L 65 262 Z M 65 8 " clip-rule="nonzero"/></clipPath><clipPath id="e9c1cd38b8"><rect x="0" width="334" y="0" height="262"/></clipPath><clipPath id="1492c356db"><rect x="0" width="375" y="0" height="375"/></clipPath></defs><rect x="-37.5" width="450" fill="#ffffff" y="-37.499999" height="449.999989" fill-opacity="1"/><rect x="-37.5" width="450" fill="#ffffff" y="-37.499999" height="449.999989" fill-opacity="1"/><g transform="matrix(1, 0, 0, 1, 0, 0)"><g clip-path="url(#1492c356db)"><g clip-path="url(#e0ee9dcb82)"><g clip-path="url(#0460782594)"><g transform="matrix(1, 0, 0, 1, 0, 0)"><g clip-path="url(#8bdb1b671d)"><g clip-path="url(#5118ccd232)"><g clip-path="url(#78c52c5650)"><rect x="-136.5" width="648" fill="#5249e5" y="-136.499997" height="647.999984" fill-opacity="1"/></g></g></g></g></g></g><g transform="matrix(1, 0, 0, 1, 19, 113)"><g clip-path="url(#e9c1cd38b8)"><g clip-path="url(#2401f0a093)"><g fill="#ffffff" fill-opacity="0.2314"><g transform="translate(28.119868, 313.749172)"><g><path d="M 244.28125 -51.5625 C 247.375 -48.019531 249.546875 -44.109375 250.796875 -39.828125 C 252.054688 -35.546875 252.460938 -31.269531 252.015625 -27 C 251.429688 -22.71875 250.066406 -18.582031 247.921875 -14.59375 C 245.785156 -10.613281 242.800781 -7.148438 238.96875 -4.203125 C 235.132812 -1.253906 231.113281 0.804688 226.90625 1.984375 C 222.707031 3.171875 218.46875 3.46875 214.1875 2.875 C 205.476562 1.988281 198.03125 -2.210938 191.84375 -9.734375 L 146.921875 -74.78125 C 145.148438 -74.632812 143.378906 -74.523438 141.609375 -74.453125 C 139.835938 -74.378906 138.066406 -74.34375 136.296875 -74.34375 L 99.5625 -74.34375 L 99.5625 -31.421875 C 99.5625 -26.554688 98.675781 -22.019531 96.90625 -17.8125 C 95.144531 -13.601562 92.710938 -9.953125 89.609375 -6.859375 C 83.117188 -0.078125 74.929688 3.3125 65.046875 3.3125 C 55.015625 3.3125 46.753906 -0.078125 40.265625 -6.859375 C 37.171875 -9.953125 34.738281 -13.601562 32.96875 -17.8125 C 31.195312 -22.019531 30.3125 -26.554688 30.3125 -31.421875 L 30.3125 -249.359375 C 30.164062 -251.285156 29.976562 -253.242188 29.75 -255.234375 C 29.53125 -257.222656 29.203125 -259.175781 28.765625 -261.09375 C 28.171875 -263.007812 27.765625 -264.890625 27.546875 -266.734375 C 27.328125 -268.578125 27.21875 -270.3125 27.21875 -271.9375 C 27.21875 -274.144531 27.546875 -276.132812 28.203125 -277.90625 C 28.867188 -279.675781 30.085938 -281.226562 31.859375 -282.5625 C 35.253906 -285.0625 41.300781 -286.3125 50 -286.3125 L 136.296875 -286.3125 C 151.492188 -286.3125 165.953125 -283.546875 179.671875 -278.015625 C 193.390625 -272.484375 205.484375 -264.925781 215.953125 -255.34375 C 226.429688 -245.601562 234.765625 -234.207031 240.953125 -221.15625 C 247.148438 -208.101562 250.25 -193.976562 250.25 -178.78125 C 250.25 -163.738281 247.148438 -149.835938 240.953125 -137.078125 C 234.765625 -124.316406 226.429688 -113.289062 215.953125 -104 C 214.628906 -102.96875 213.300781 -101.894531 211.96875 -100.78125 C 210.644531 -99.675781 209.316406 -98.609375 207.984375 -97.578125 Z M 98.234375 -133.859375 L 136.296875 -133.859375 C 142.640625 -133.859375 148.648438 -134.925781 154.328125 -137.0625 C 160.003906 -139.207031 164.910156 -142.125 169.046875 -145.8125 C 173.328125 -149.644531 176.609375 -154.179688 178.890625 -159.421875 C 181.179688 -164.660156 182.328125 -170.453125 182.328125 -176.796875 C 182.328125 -183.140625 181.179688 -189.1875 178.890625 -194.9375 C 176.609375 -200.6875 173.328125 -205.773438 169.046875 -210.203125 C 164.910156 -214.484375 160.003906 -217.910156 154.328125 -220.484375 C 148.648438 -223.066406 142.640625 -224.359375 136.296875 -224.359375 L 98.234375 -224.359375 Z M 98.234375 -133.859375 "/></g></g></g></g><g clip-path="url(#e3dc3c3a6b)"><g fill="#ffffff" fill-opacity="1"><g transform="translate(37.988242, 295.189469)"><g><path d="M 244.28125 -51.5625 C 247.375 -48.019531 249.546875 -44.109375 250.796875 -39.828125 C 252.054688 -35.546875 252.460938 -31.269531 252.015625 -27 C 251.429688 -22.71875 250.066406 -18.582031 247.921875 -14.59375 C 245.785156 -10.613281 242.800781 -7.148438 238.96875 -4.203125 C 235.132812 -1.253906 231.113281 0.804688 226.90625 1.984375 C 222.707031 3.171875 218.46875 3.46875 214.1875 2.875 C 205.476562 1.988281 198.03125 -2.210938 191.84375 -9.734375 L 146.921875 -74.78125 C 145.148438 -74.632812 143.378906 -74.523438 141.609375 -74.453125 C 139.835938 -74.378906 138.066406 -74.34375 136.296875 -74.34375 L 99.5625 -74.34375 L 99.5625 -31.421875 C 99.5625 -26.554688 98.675781 -22.019531 96.90625 -17.8125 C 95.144531 -13.601562 92.710938 -9.953125 89.609375 -6.859375 C 83.117188 -0.078125 74.929688 3.3125 65.046875 3.3125 C 55.015625 3.3125 46.753906 -0.078125 40.265625 -6.859375 C 37.171875 -9.953125 34.738281 -13.601562 32.96875 -17.8125 C 31.195312 -22.019531 30.3125 -26.554688 30.3125 -31.421875 L 30.3125 -249.359375 C 30.164062 -251.285156 29.976562 -253.242188 29.75 -255.234375 C 29.53125 -257.222656 29.203125 -259.175781 28.765625 -261.09375 C 28.171875 -263.007812 27.765625 -264.890625 27.546875 -266.734375 C 27.328125 -268.578125 27.21875 -270.3125 27.21875 -271.9375 C 27.21875 -274.144531 27.546875 -276.132812 28.203125 -277.90625 C 28.867188 -279.675781 30.085938 -281.226562 31.859375 -282.5625 C 35.253906 -285.0625 41.300781 -286.3125 50 -286.3125 L 136.296875 -286.3125 C 151.492188 -286.3125 165.953125 -283.546875 179.671875 -278.015625 C 193.390625 -272.484375 205.484375 -264.925781 215.953125 -255.34375 C 226.429688 -245.601562 234.765625 -234.207031 240.953125 -221.15625 C 247.148438 -208.101562 250.25 -193.976562 250.25 -178.78125 C 250.25 -163.738281 247.148438 -149.835938 240.953125 -137.078125 C 234.765625 -124.316406 226.429688 -113.289062 215.953125 -104 C 214.628906 -102.96875 213.300781 -101.894531 211.96875 -100.78125 C 210.644531 -99.675781 209.316406 -98.609375 207.984375 -97.578125 Z M 98.234375 -133.859375 L 136.296875 -133.859375 C 142.640625 -133.859375 148.648438 -134.925781 154.328125 -137.0625 C 160.003906 -139.207031 164.910156 -142.125 169.046875 -145.8125 C 173.328125 -149.644531 176.609375 -154.179688 178.890625 -159.421875 C 181.179688 -164.660156 182.328125 -170.453125 182.328125 -176.796875 C 182.328125 -183.140625 181.179688 -189.1875 178.890625 -194.9375 C 176.609375 -200.6875 173.328125 -205.773438 169.046875 -210.203125 C 164.910156 -214.484375 160.003906 -217.910156 154.328125 -220.484375 C 148.648438 -223.066406 142.640625 -224.359375 136.296875 -224.359375 L 98.234375 -224.359375 Z M 98.234375 -133.859375 "/></g></g></g></g></g></g></g></g></svg>